Normalized EMG Linear Envelopes
nRows=128
nColumns=4

endheader
time	 med_gas_r	  soleus_r	 tib_ant_r	
2.5625	  0.008221	  0.017155	  0.004241	
2.625	  0.008365	  0.017365	  0.004513	
2.6875	  0.008597	  0.018107	  0.004737	
2.75	  0.008917	  0.019676	  0.004916	
2.8125	  0.009226	  0.021744	  0.005082	
2.875	  0.009414	  0.023226	  0.005202	
2.9375	  0.009488	  0.023122	  0.005198	
3	  0.009608	  0.021657	  0.005094	
3.0625	  0.009909	  0.020181	  0.005025	
3.125	  0.010237	  0.019679	  0.005052	
3.1875	  0.010185	  0.019823	  0.005089	
3.25	  0.009603	  0.019678	  0.005014	
3.3125	  0.008911	  0.018781	  0.004764	
3.375	  0.008680	  0.017457	  0.004401	
3.4375	  0.009016	  0.016574	  0.004114	
3.5	  0.009527	  0.016887	  0.004081	
3.5625	  0.009817	  0.018407	  0.004313	
3.625	  0.009792	  0.020534	  0.004660	
3.6875	  0.009524	  0.022654	  0.004913	
3.75	  0.009142	  0.024378	  0.004938	
3.8125	  0.008827	  0.025340	  0.004745	
3.875	  0.008693	  0.025061	  0.004488	
3.9375	  0.008681	  0.023520	  0.004394	
4	  0.008668	  0.021732	  0.004599	
4.0625	  0.008643	  0.020826	  0.005032	
4.125	  0.008726	  0.020819	  0.005475	
4.1875	  0.008940	  0.020939	  0.005694	
4.25	  0.009112	  0.020594	  0.005559	
4.3125	  0.009108	  0.019681	  0.005154	
4.375	  0.009006	  0.018451	  0.004694	
4.4375	  0.008941	  0.017340	  0.004323	
4.5	  0.008949	  0.016843	  0.004077	
4.5625	  0.009071	  0.017237	  0.003973	
4.625	  0.009367	  0.018166	  0.004020	
4.6875	  0.009701	  0.018782	  0.004150	
4.75	  0.009713	  0.018377	  0.004157	
4.8125	  0.009106	  0.016692	  0.003786	
4.875	  0.007872	  0.013995	  0.002952	
4.9375	  0.006318	  0.011272	  0.001996	
5	  0.005162	  0.010525	  0.001909	
5.0625	  0.005874	  0.015915	  0.004460	
5.125	  0.010806	  0.034704	  0.011764	
5.1875	  0.022253	  0.074199	  0.024613	
5.25	  0.040605	  0.134775	  0.040567	
5.3125	  0.062684	  0.205356	  0.054855	
5.375	  0.081865	  0.267582	  0.063988	
5.4375	  0.091526	  0.307737	  0.067915	
5.5	  0.090058	  0.324851	  0.069201	
5.5625	  0.081781	  0.325194	  0.070944	
5.625	  0.072481	  0.313331	  0.074286	
5.6875	  0.065802	  0.294810	  0.077654	
5.75	  0.063588	  0.281661	  0.079810	
5.8125	  0.066216	  0.284130	  0.082301	
5.875	  0.071813	  0.300143	  0.086628	
5.9375	  0.077676	  0.321607	  0.090851	
6	  0.083406	  0.346727	  0.092071	
6.0625	  0.091394	  0.379678	  0.091078	
6.125	  0.103439	  0.421279	  0.091678	
6.1875	  0.118040	  0.464207	  0.095924	
6.25	  0.130886	  0.497243	  0.101692	
6.3125	  0.136398	  0.510980	  0.104694	
6.375	  0.131134	  0.499278	  0.102550	
6.4375	  0.118809	  0.464289	  0.097533	
6.5	  0.110666	  0.425778	  0.095523	
6.5625	  0.120569	  0.416351	  0.101789	
6.625	  0.158031	  0.456860	  0.116831	
6.6875	  0.217406	  0.534497	  0.134671	
6.75	  0.272594	  0.608295	  0.145349	
6.8125	  0.295554	  0.641264	  0.142586	
6.875	  0.284089	  0.628665	  0.130285	
6.9375	  0.260468	  0.593005	  0.118639	
7	  0.244200	  0.557077	  0.113741	
7.0625	  0.238759	  0.531913	  0.114199	
7.125	  0.241712	  0.524267	  0.116590	
7.1875	  0.254456	  0.538388	  0.119310	
7.25	  0.279425	  0.568306	  0.121416	
7.3125	  0.313509	  0.596587	  0.122154	
7.375	  0.348470	  0.606013	  0.121869	
7.4375	  0.376842	  0.596028	  0.120746	
7.5	  0.393858	  0.584082	  0.117594	
7.5625	  0.395662	  0.585206	  0.112499	
7.625	  0.382464	  0.598054	  0.109241	
7.6875	  0.362756	  0.614317	  0.112042	
7.75	  0.345939	  0.625843	  0.120303	
7.8125	  0.331260	  0.621006	  0.128375	
7.875	  0.312674	  0.593866	  0.130450	
7.9375	  0.292473	  0.556554	  0.125565	
8	  0.281876	  0.527770	  0.118453	
8.0625	  0.289231	  0.515354	  0.115010	
8.125	  0.311400	  0.518794	  0.116909	
8.1875	  0.335807	  0.535251	  0.121357	
8.25	  0.350851	  0.555983	  0.124416	
8.3125	  0.355852	  0.570334	  0.123649	
8.375	  0.361107	  0.577135	  0.120025	
8.4375	  0.377138	  0.581203	  0.117643	
8.5	  0.402346	  0.580467	  0.119919	
8.5625	  0.423963	  0.570013	  0.126534	
8.625	  0.433582	  0.554978	  0.134549	
8.6875	  0.434963	  0.546408	  0.140806	
8.75	  0.433888	  0.550311	  0.142407	
8.8125	  0.429041	  0.568291	  0.137156	
8.875	  0.415200	  0.598567	  0.125875	
8.9375	  0.389990	  0.627749	  0.112975	
9	  0.357800	  0.630383	  0.103156	
9.0625	  0.329426	  0.591492	  0.098523	
9.125	  0.315017	  0.528193	  0.098382	
9.1875	  0.314705	  0.476491	  0.100313	
9.25	  0.319289	  0.459416	  0.102321	
9.3125	  0.323181	  0.477261	  0.104475	
9.375	  0.332170	  0.520431	  0.108041	
9.4375	  0.352761	  0.577506	  0.113802	
9.5	  0.377881	  0.630535	  0.120949	
9.5625	  0.392222	  0.655721	  0.126965	
9.625	  0.389973	  0.641945	  0.129571	
9.6875	  0.377757	  0.604227	  0.128363	
9.75	  0.362190	  0.568433	  0.123643	
9.8125	  0.342614	  0.545665	  0.115538	
9.875	  0.314427	  0.524681	  0.104928	
9.9375	  0.275574	  0.487267	  0.092883	
10	  0.229031	  0.427258	  0.079294	
10.0625	  0.179177	  0.349620	  0.064053	
10.125	  0.128942	  0.260343	  0.048635	
10.1875	  0.081890	  0.168802	  0.035213	
10.25	  0.043606	  0.090726	  0.025391	
10.3125	  0.018759	  0.039055	  0.020000	
10.375	  0.007491	  0.015061	  0.018984	
10.4375	  0.005501	  0.009946	  0.021314	
10.5	  0.007195	  0.012338	  0.025282	
